{
  "accessors": [
    {
      "bufferView": 2,
      "componentType": 5126,
      "count": 65532,
      "max": [
        0.18559999763965607,
        0.1458899974822998,
        0.0743900015950203
      ],
      "min": [
        -0.21431000530719757,
        -0.19373999536037445,
        -0.020020000636577606
      ],
      "type": "VEC3"
    },
    {
      "bufferView": 2,
      "byteOffset": 786384,
      "componentType": 5126,
      "count": 65532,
      "max": [
        0.9999900460243225,
        0.9998208284378052,
        1.0
      ],
      "min": [
        -0.9993175268173218,
        -0.9999378323554993,
        -0.9999549984931946
      ],
      "type": "VEC3"
    },
    {
      "bufferView": 1,
      "componentType": 5126,
      "count": 65532,
      "max": [
        0.9977700114250183,
        0.9979209899902344
      ],
      "min": [
        0.0021250001154839993,
        0.1687150001525879
      ],
      "type": "VEC2"
    },
    {
      "bufferView": 0,
      "componentType": 5125,
      "count": 343821,
      "type": "SCALAR"
    },
    {
      "bufferView": 2,
      "byteOffset": 1572768,
      "componentType": 5126,
      "count": 65532,
      "max": [
        0.18602000176906586,
        0.14512999355793,
        0.06865999847650528
      ],
      "min": [
        -0.22926999628543854,
        -0.19268999993801117,
        -0.01143999956548214
      ],
      "type": "VEC3"
    },
    {
      "bufferView": 2,
      "byteOffset": 2359152,
      "componentType": 5126,
      "count": 65532,
      "max": [
        0.9998555183410645,
        0.9995420575141907,
        1.0
      ],
      "min": [
        -0.9995992183685303,
        -0.9998955130577087,
        -0.997748613357544
      ],
      "type": "VEC3"
    },
    {
      "bufferView": 1,
      "byteOffset": 524256,
      "componentType": 5126,
      "count": 65532,
      "max": [
        0.9960129857063293,
        0.9979090094566345
      ],
      "min": [
        0.0020759999752044678,
        0.21571800112724304
      ],
      "type": "VEC2"
    },
    {
      "bufferView": 0,
      "byteOffset": 1375284,
      "componentType": 5125,
      "count": 355368,
      "type": "SCALAR"
    },
    {
      "bufferView": 2,
      "byteOffset": 3145536,
      "componentType": 5126,
      "count": 29812,
      "max": [
        0.18549999594688416,
        0.13255000114440918,
        0.07509999722242355
      ],
      "min": [
        -0.22311000525951385,
        -0.1679999977350235,
        -0.014159999787807465
      ],
      "type": "VEC3"
    },
    {
      "bufferView": 2,
      "byteOffset": 3503280,
      "componentType": 5126,
      "count": 29812,
      "max": [
        0.9999820590019226,
        0.9999110102653503,
        1.0
      ],
      "min": [
        -0.9994249939918518,
        -1.0,
        -0.9980683922767639
      ],
      "type": "VEC3"
    },
    {
      "bufferView": 1,
      "byteOffset": 1048512,
      "componentType": 5126,
      "count": 29812,
      "max": [
        0.9973019957542419,
        0.8941149711608887
      ],
      "min": [
        0.00215000007301569,
        0.16873599588871002
      ],
      "type": "VEC2"
    },
    {
      "bufferView": 0,
      "byteOffset": 2796756,
      "componentType": 5125,
      "count": 160401,
      "type": "SCALAR"
    }
  ],
  "asset": {
    "extras": {
      "author": "seirogan (https://sketchfab.com/seirogan)",
      "license": "CC-BY-NC-SA-4.0 (http://creativecommons.org/licenses/by-nc-sa/4.0/)",
      "source": "https://sketchfab.com/3d-models/chole-bhature-a4fcd5f9a8b34a9883bda4198d63801a",
      "title": "Chole Bhature"
    },
    "generator": "Sketchfab-15.38.0",
    "version": "2.0"
  },
  "bufferViews": [
    {
      "buffer": 0,
      "byteLength": 3438360,
      "name": "floatBufferViews",
      "target": 34963
    },
    {
      "buffer": 0,
      "byteLength": 1287008,
      "byteOffset": 3438360,
      "byteStride": 8,
      "name": "floatBufferViews",
      "target": 34962
    },
    {
      "buffer": 0,
      "byteLength": 3861024,
      "byteOffset": 4725368,
      "byteStride": 12,
      "name": "floatBufferViews",
      "target": 34962
    }
  ],
  "buffers": [
    {
      "byteLength": 8586392,
      "uri": "scene.bin"
    }
  ],
  "extensionsUsed": [
    "KHR_materials_unlit"
  ],
  "images": [
    {
      "uri": "textures/main_baseColor.jpeg"
    }
  ],
  "materials": [
    {
      "doubleSided": true,
      "extensions": {
        "KHR_materials_unlit": {}
      },
      "name": "main",
      "pbrMetallicRoughness": {
        "baseColorTexture": {
          "index": 0
        },
        "metallicFactor": 0.0
      }
    }
  ],
  "meshes": [
    {
      "name": "Object_0",
      "primitives": [
        {
          "attributes": {
            "NORMAL": 1,
            "POSITION": 0,
            "TEXCOORD_0": 2
          },
          "indices": 3,
          "material": 0,
          "mode": 4
        }
      ]
    },
    {
      "name": "Object_1",
      "primitives": [
        {
          "attributes": {
            "NORMAL": 5,
            "POSITION": 4,
            "TEXCOORD_0": 6
          },
          "indices": 7,
          "material": 0,
          "mode": 4
        }
      ]
    },
    {
      "name": "Object_2",
      "primitives": [
        {
          "attributes": {
            "NORMAL": 9,
            "POSITION": 8,
            "TEXCOORD_0": 10
          },
          "indices": 11,
          "material": 0,
          "mode": 4
        }
      ]
    }
  ],
  "nodes": [
    {
      "children": [
        1
      ],
      "matrix": [
        1.0,
        0.0,
        0.0,
        0.0,
        0.0,
        2.220446049250313e-16,
        -1.0,
        0.0,
        0.0,
        1.0,
        2.220446049250313e-16,
        0.0,
        0.0,
        0.0,
        0.0,
        1.0
      ],
      "name": "Sketchfab_model"
    },
    {
      "children": [
        2,
        3,
        4
      ],
      "name": "Scaniverse.obj.cleaner.materialmerger.gles"
    },
    {
      "mesh": 0,
      "name": "Object_2"
    },
    {
      "mesh": 1,
      "name": "Object_3"
    },
    {
      "mesh": 2,
      "name": "Object_4"
    }
  ],
  "samplers": [
    {
      "magFilter": 9729,
      "minFilter": 9987,
      "wrapS": 10497,
      "wrapT": 10497
    }
  ],
  "scene": 0,
  "scenes": [
    {
      "name": "Sketchfab_Scene",
      "nodes": [
        0
      ]
    }
  ],
  "textures": [
    {
      "sampler": 0,
      "source": 0
    }
  ]
}
