{
  "accessors": [
    {
      "bufferView": 2,
      "componentType": 5126,
      "count": 32,
      "max": [
        1.0,
        1.0,
        0.0
      ],
      "min": [
        -1.0,
        -1.0,
        0.0
      ],
      "type": "VEC3"
    },
    {
      "bufferView": 2,
      "byteOffset": 384,
      "componentType": 5126,
      "count": 32,
      "max": [
        0.0,
        0.0,
        1.0
      ],
      "min": [
        0.0,
        0.0,
        1.0
      ],
      "type": "VEC3"
    },
    {
      "bufferView": 1,
      "componentType": 5126,
      "count": 32,
      "max": [
        0.819806694984436,
        0.9742645025253296
      ],
      "min": [
        0.1852993667125702,
        0.021696358919143677
      ],
      "type": "VEC2"
    },
    {
      "bufferView": 0,
      "componentType": 5125,
      "count": 90,
      "type": "SCALAR"
    },
    {
      "bufferView": 2,
      "byteOffset": 768,
      "componentType": 5126,
      "count": 3079,
      "max": [
        1.0266706943511963,
        1.0266703367233276,
        0.1662408709526062
      ],
      "min": [
        -1.026670217514038,
        -1.0266709327697754,
        -0.7907146215438843
      ],
      "type": "VEC3"
    },
    {
      "bufferView": 2,
      "byteOffset": 37716,
      "componentType": 5126,
      "count": 3079,
      "max": [
        0.9988176226615906,
        0.9988160729408264,
        1.0
      ],
      "min": [
        -0.9988176226615906,
        -0.9988160729408264,
        -1.0
      ],
      "type": "VEC3"
    },
    {
      "bufferView": 1,
      "byteOffset": 256,
      "componentType": 5126,
      "count": 3079,
      "max": [
        1.0,
        1.0
      ],
      "min": [
        0.0,
        0.0
      ],
      "type": "VEC2"
    },
    {
      "bufferView": 0,
      "byteOffset": 360,
      "componentType": 5125,
      "count": 14592,
      "type": "SCALAR"
    }
  ],
  "asset": {
    "extras": {
      "author": "mornaista (https://sketchfab.com/mornaista)",
      "license": "CC-BY-4.0 (http://creativecommons.org/licenses/by/4.0/)",
      "source": "https://sketchfab.com/3d-models/bowl-with-soup-de4ecf2c5040488ab98d214a0d9362cc",
      "title": "Bowl with Soup"
    },
    "generator": "Sketchfab-12.67.0",
    "version": "2.0"
  },
  "bufferViews": [
    {
      "buffer": 0,
      "byteLength": 58728,
      "name": "floatBufferViews",
      "target": 34963
    },
    {
      "buffer": 0,
      "byteLength": 24888,
      "byteOffset": 58728,
      "byteStride": 8,
      "name": "floatBufferViews",
      "target": 34962
    },
    {
      "buffer": 0,
      "byteLength": 74664,
      "byteOffset": 83616,
      "byteStride": 12,
      "name": "floatBufferViews",
      "target": 34962
    }
  ],
  "buffers": [
    {
      "byteLength": 158280,
      "uri": "scene.bin"
    }
  ],
  "images": [
    {
      "uri": "textures/T_Soup_baseColor.png"
    },
    {
      "uri": "textures/M_Bowl_Empty_baseColor.png"
    }
  ],
  "materials": [
    {
      "doubleSided": true,
      "name": "T_Soup",
      "pbrMetallicRoughness": {
        "baseColorTexture": {
          "index": 0
        },
        "metallicFactor": 0.0,
        "roughnessFactor": 0.8211145618000169
      }
    },
    {
      "doubleSided": true,
      "name": "M_Bowl_Empty",
      "pbrMetallicRoughness": {
        "baseColorTexture": {
          "index": 1
        },
        "metallicFactor": 0.0,
        "roughnessFactor": 0.8211145618000169
      }
    }
  ],
  "meshes": [
    {
      "name": "T_Bowl_Soup_T_Soup_0",
      "primitives": [
        {
          "attributes": {
            "NORMAL": 1,
            "POSITION": 0,
            "TEXCOORD_0": 2
          },
          "indices": 3,
          "material": 0,
          "mode": 4
        }
      ]
    },
    {
      "name": "T_Bowl_Soup_M_Bowl_Empty_0",
      "primitives": [
        {
          "attributes": {
            "NORMAL": 5,
            "POSITION": 4,
            "TEXCOORD_0": 6
          },
          "indices": 7,
          "material": 1,
          "mode": 4
        }
      ]
    }
  ],
  "nodes": [
    {
      "children": [
        1
      ],
      "matrix": [
        1.0,
        0.0,
        0.0,
        0.0,
        0.0,
        2.220446049250313e-16,
        -1.0,
        0.0,
        0.0,
        1.0,
        2.220446049250313e-16,
        0.0,
        0.0,
        0.0,
        0.0,
        1.0
      ],
      "name": "Sketchfab_model"
    },
    {
      "children": [
        2
      ],
      "matrix": [
        1.0,
        0.0,
        0.0,
        0.0,
        0.0,
        0.0,
        1.0,
        0.0,
        0.0,
        -1.0,
        0.0,
        0.0,
        0.0,
        0.0,
        0.0,
        1.0
      ],
      "name": "SM_Bowl_Soup.fbx"
    },
    {
      "children": [
        3
      ],
      "name": "RootNode"
    },
    {
      "children": [
        4,
        5
      ],
      "matrix": [
        31.19999122619629,
        0.0,
        0.0,
        0.0,
        0.0,
        -5.083123767591079e-06,
        -31.199991226195877,
        0.0,
        0.0,
        31.199991226195877,
        -5.083123767591079e-06,
        0.0,
        0.0,
        23.02909278869629,
        0.0,
        1.0
      ],
      "name": "T_Bowl_Soup"
    },
    {
      "mesh": 0,
      "name": "T_Bowl_Soup_T_Soup_0"
    },
    {
      "mesh": 1,
      "name": "T_Bowl_Soup_M_Bowl_Empty_0"
    }
  ],
  "samplers": [
    {
      "magFilter": 9729,
      "minFilter": 9987,
      "wrapS": 10497,
      "wrapT": 10497
    }
  ],
  "scene": 0,
  "scenes": [
    {
      "name": "Sketchfab_Scene",
      "nodes": [
        0
      ]
    }
  ],
  "textures": [
    {
      "sampler": 0,
      "source": 0
    },
    {
      "sampler": 0,
      "source": 1
    }
  ]
}
